<svg xmlns="http://www.w3.org/2000/svg" viewBox="0 0 24.7 23.96"><defs><style>.cls-1{fill:#fff;}</style></defs><g id="Layer_2" data-name="Layer 2"><g id="Layer_1-2" data-name="Layer 1"><path class="cls-1" d="M7.58,14c4.48,0,8.84,0,13.21,0a1,1,0,0,0,.76-.59c.64-2.79,1.23-5.6,1.86-8.55-.5,0-.9-.06-1.3-.06H9.23a2.5,2.5,0,0,1-.91-.06.81.81,0,0,1-.41-.58c0-.18.3-.41.51-.48a2.28,2.28,0,0,1,.79,0h14c1.6,0,1.6,0,1.28,1.52-.63,3-1.28,5.91-1.86,8.88-.17.89-.56,1.17-1.46,1.16-4.41,0-8.81,0-13.22,0-.35,0-.78-.11-1,0-.42.3-1,.76-1,1.16s.57.92,1,1.11a4.4,4.4,0,0,0,1.59.06H20.31a2.73,2.73,0,0,1,.91.05.83.83,0,0,1,.46.56c0,.17-.29.38-.5.5a1.28,1.28,0,0,1-.56.05c-4.45,0-8.9,0-13.34,0-1.64,0-2.69-1-2.48-2.47a3,3,0,0,1,1-1.72,1.12,1.12,0,0,0,.45-1.33C5.4,9.45,4.62,5.75,3.86,2c-.12-.61-.39-.85-1-.82a15.84,15.84,0,0,1-2.18,0C.44,1.15.23.86,0,.69.22.47.42.07.65.06A20.91,20.91,0,0,1,4.1.08c.26,0,.59.63.67,1C5.64,5,6.45,8.87,7.29,12.77,7.37,13.14,7.46,13.51,7.58,14Z"/><path class="cls-1" d="M8,24a1.67,1.67,0,1,1,1.67-1.67A1.67,1.67,0,0,1,8,24Zm0-3a1.32,1.32,0,1,0,1.32,1.32A1.32,1.32,0,0,0,8,21Z"/><path class="cls-1" d="M19.05,24a1.67,1.67,0,1,1,1.67-1.67A1.67,1.67,0,0,1,19.05,24Zm0-3a1.32,1.32,0,1,0,1.32,1.32A1.32,1.32,0,0,0,19.05,21Z"/></g></g></svg>