<svg xmlns="http://www.w3.org/2000/svg" viewBox="0 0 22.16 19.98"><defs><style>.cls-1{fill:#fff;}</style></defs><g id="Layer_2" data-name="Layer 2"><g id="Layer_1-2" data-name="Layer 1"><path class="cls-1" d="M11.09,2.22A6.71,6.71,0,0,1,15,.08a6.32,6.32,0,0,1,7.06,5.19,6.18,6.18,0,0,1-1.76,5.46c-2.94,3-5.92,5.93-8.88,8.89-.1.1-.22.19-.42.36L3.94,12.81c-.76-.76-1.54-1.5-2.27-2.29A6.26,6.26,0,0,1,10.6,1.75Zm.08,1.43c-.46-.49-.76-.84-1.09-1.15A5.19,5.19,0,0,0,4.69,1.18a5.35,5.35,0,0,0-2.16,9C5.27,12.9,8,15.64,10.81,18.39a1.74,1.74,0,0,0,.27.22.69.69,0,0,0,.16-.09c2.87-2.86,5.75-5.72,8.59-8.6a5,5,0,0,0,1.43-3.44,5.36,5.36,0,0,0-3.17-5.09,5.29,5.29,0,0,0-5.9,1A13.66,13.66,0,0,0,11.17,3.65Z"/></g></g></svg>